<mxfile host="app.diagrams.net" modified="2022-01-17T12:51:25.635Z" agent="5.0 (Windows NT 10.0; Win64; x64) AppleWebKit/537.36 (KHTML, like Gecko) Chrome/97.0.4692.71 Safari/537.36" etag="a72ZKx_82D1Q7BDB_PHK" version="16.2.7" type="github">
  <diagram id="9fw6fWgfyL_nY5y5QZao" name="Opción 1">
    <mxGraphModel dx="1422" dy="762" grid="1" gridSize="10" guides="1" tooltips="1" connect="1" arrows="1" fold="1" page="1" pageScale="1" pageWidth="1169" pageHeight="827" math="0" shadow="0">
      <root>
        <mxCell id="0" />
        <mxCell id="1" parent="0" />
        <mxCell id="56lBwPPq4AMo4LWb5H_u-5" value="" style="rounded=0;whiteSpace=wrap;html=1;fillColor=#ffe6cc;strokeColor=#d79b00;" vertex="1" parent="1">
          <mxGeometry x="240" y="960" width="200" height="690" as="geometry" />
        </mxCell>
        <mxCell id="56lBwPPq4AMo4LWb5H_u-1" value="&lt;font style=&quot;font-size: 22px&quot;&gt;&lt;b&gt;Ciclo de Vida de un Activo - Opción 2&lt;/b&gt;&lt;/font&gt;" style="shape=umlFrame;whiteSpace=wrap;html=1;width=600;height=60;boundedLbl=1;verticalAlign=middle;align=left;spacingLeft=5;strokeColor=none;" vertex="1" parent="1">
          <mxGeometry y="850" width="1160" height="820" as="geometry" />
        </mxCell>
        <mxCell id="56lBwPPq4AMo4LWb5H_u-4" value="" style="rounded=0;whiteSpace=wrap;html=1;fillColor=#dae8fc;strokeColor=none;" vertex="1" parent="1">
          <mxGeometry x="40" y="960" width="200" height="690" as="geometry" />
        </mxCell>
        <mxCell id="5fb2iIqXQqe1BXmPkbBv-1" value="" style="ellipse;fillColor=#000000;strokeColor=none;" parent="1" vertex="1">
          <mxGeometry x="70" y="380" width="80" height="80" as="geometry" />
        </mxCell>
        <mxCell id="5fb2iIqXQqe1BXmPkbBv-6" value="" style="edgeStyle=orthogonalEdgeStyle;rounded=0;orthogonalLoop=1;jettySize=auto;html=1;endArrow=classic;endFill=1;curved=1;exitX=1;exitY=0.5;exitDx=0;exitDy=0;entryX=0;entryY=0.5;entryDx=0;entryDy=0;" parent="1" source="5fb2iIqXQqe1BXmPkbBv-3" target="5fb2iIqXQqe1BXmPkbBv-5" edge="1">
          <mxGeometry relative="1" as="geometry" />
        </mxCell>
        <mxCell id="5fb2iIqXQqe1BXmPkbBv-3" value="Creado" style="ellipse;fillColor=#ffffff;strokeColor=#000000;" parent="1" vertex="1">
          <mxGeometry x="270" y="380" width="80" height="80" as="geometry" />
        </mxCell>
        <mxCell id="5fb2iIqXQqe1BXmPkbBv-4" value="" style="endArrow=classic;startArrow=none;endFill=1;startFill=0;endSize=8;html=1;verticalAlign=bottom;labelBackgroundColor=none;strokeWidth=1;rounded=0;" parent="1" target="5fb2iIqXQqe1BXmPkbBv-3" edge="1">
          <mxGeometry width="160" relative="1" as="geometry">
            <mxPoint x="150" y="419.44" as="sourcePoint" />
            <mxPoint x="270" y="419" as="targetPoint" />
          </mxGeometry>
        </mxCell>
        <mxCell id="5fb2iIqXQqe1BXmPkbBv-15" value="" style="edgeStyle=orthogonalEdgeStyle;curved=1;rounded=0;orthogonalLoop=1;jettySize=auto;html=1;endArrow=classic;endFill=1;exitX=0.5;exitY=0;exitDx=0;exitDy=0;entryX=0.5;entryY=1;entryDx=0;entryDy=0;" parent="1" source="5fb2iIqXQqe1BXmPkbBv-5" target="5fb2iIqXQqe1BXmPkbBv-14" edge="1">
          <mxGeometry relative="1" as="geometry">
            <Array as="points">
              <mxPoint x="480" y="340" />
              <mxPoint x="480" y="340" />
            </Array>
          </mxGeometry>
        </mxCell>
        <mxCell id="5fb2iIqXQqe1BXmPkbBv-5" value="Sin&#xa;Asignar" style="ellipse;fillColor=#ffffff;strokeColor=#000000;" parent="1" vertex="1">
          <mxGeometry x="440" y="380" width="80" height="80" as="geometry" />
        </mxCell>
        <mxCell id="5fb2iIqXQqe1BXmPkbBv-10" value="" style="edgeStyle=orthogonalEdgeStyle;curved=1;rounded=0;orthogonalLoop=1;jettySize=auto;html=1;endArrow=classic;endFill=1;entryX=0;entryY=1;entryDx=0;entryDy=0;" parent="1" source="5fb2iIqXQqe1BXmPkbBv-7" target="5fb2iIqXQqe1BXmPkbBv-9" edge="1">
          <mxGeometry relative="1" as="geometry">
            <Array as="points">
              <mxPoint x="572" y="590" />
            </Array>
          </mxGeometry>
        </mxCell>
        <mxCell id="5fb2iIqXQqe1BXmPkbBv-23" value="" style="edgeStyle=orthogonalEdgeStyle;curved=1;rounded=0;orthogonalLoop=1;jettySize=auto;html=1;endArrow=classic;endFill=1;" parent="1" source="5fb2iIqXQqe1BXmPkbBv-7" target="5fb2iIqXQqe1BXmPkbBv-22" edge="1">
          <mxGeometry relative="1" as="geometry" />
        </mxCell>
        <mxCell id="5fb2iIqXQqe1BXmPkbBv-7" value="Asignado" style="ellipse;fillColor=#ffffff;strokeColor=#000000;" parent="1" vertex="1">
          <mxGeometry x="440" y="550" width="80" height="80" as="geometry" />
        </mxCell>
        <mxCell id="5fb2iIqXQqe1BXmPkbBv-9" value="Informado" style="ellipse;fillColor=#ffffff;strokeColor=#000000;" parent="1" vertex="1">
          <mxGeometry x="560" y="470" width="80" height="80" as="geometry" />
        </mxCell>
        <mxCell id="5fb2iIqXQqe1BXmPkbBv-11" value="" style="endArrow=classic;startArrow=none;endFill=1;startFill=0;endSize=8;html=1;verticalAlign=bottom;labelBackgroundColor=none;strokeWidth=1;rounded=0;entryX=1;entryY=1;entryDx=0;entryDy=0;exitX=0;exitY=0;exitDx=0;exitDy=0;edgeStyle=orthogonalEdgeStyle;curved=1;" parent="1" source="5fb2iIqXQqe1BXmPkbBv-9" target="5fb2iIqXQqe1BXmPkbBv-5" edge="1">
          <mxGeometry width="160" relative="1" as="geometry">
            <mxPoint x="160" y="429.44000000000005" as="sourcePoint" />
            <mxPoint x="280" y="430" as="targetPoint" />
            <Array as="points">
              <mxPoint x="572" y="460" />
              <mxPoint x="572" y="448" />
            </Array>
          </mxGeometry>
        </mxCell>
        <mxCell id="5fb2iIqXQqe1BXmPkbBv-12" value="" style="endArrow=classic;startArrow=none;endFill=1;startFill=0;endSize=8;html=1;verticalAlign=bottom;labelBackgroundColor=none;strokeWidth=1;rounded=0;exitX=0.5;exitY=1;exitDx=0;exitDy=0;entryX=0.5;entryY=0;entryDx=0;entryDy=0;edgeStyle=orthogonalEdgeStyle;curved=1;" parent="1" source="5fb2iIqXQqe1BXmPkbBv-5" target="5fb2iIqXQqe1BXmPkbBv-7" edge="1">
          <mxGeometry width="160" relative="1" as="geometry">
            <mxPoint x="170" y="439.44000000000005" as="sourcePoint" />
            <mxPoint x="290" y="440" as="targetPoint" />
            <Array as="points">
              <mxPoint x="480" y="450" />
              <mxPoint x="480" y="450" />
            </Array>
          </mxGeometry>
        </mxCell>
        <mxCell id="5fb2iIqXQqe1BXmPkbBv-13" value="" style="endArrow=classic;startArrow=none;endFill=1;startFill=0;endSize=8;html=1;verticalAlign=bottom;labelBackgroundColor=none;strokeWidth=1;rounded=0;exitX=0;exitY=1;exitDx=0;exitDy=0;entryX=1;entryY=1;entryDx=0;entryDy=0;edgeStyle=orthogonalEdgeStyle;curved=1;" parent="1" source="5fb2iIqXQqe1BXmPkbBv-7" target="5fb2iIqXQqe1BXmPkbBv-7" edge="1">
          <mxGeometry width="160" relative="1" as="geometry">
            <mxPoint x="180" y="449.44000000000005" as="sourcePoint" />
            <mxPoint x="300" y="450" as="targetPoint" />
            <Array as="points">
              <mxPoint x="490" y="770" />
            </Array>
          </mxGeometry>
        </mxCell>
        <mxCell id="5fb2iIqXQqe1BXmPkbBv-14" value="En &#xa;Mantenimiento" style="ellipse;fillColor=#ffffff;strokeColor=#000000;" parent="1" vertex="1">
          <mxGeometry x="440" y="220" width="80" height="80" as="geometry" />
        </mxCell>
        <mxCell id="5fb2iIqXQqe1BXmPkbBv-16" value="Inhabilitado" style="ellipse;fillColor=#ffffff;strokeColor=#000000;" parent="1" vertex="1">
          <mxGeometry x="640" y="230" width="80" height="80" as="geometry" />
        </mxCell>
        <mxCell id="5fb2iIqXQqe1BXmPkbBv-18" value="" style="endArrow=classic;startArrow=none;endFill=1;startFill=0;endSize=8;html=1;verticalAlign=bottom;labelBackgroundColor=none;strokeWidth=1;rounded=0;exitX=0;exitY=1;exitDx=0;exitDy=0;entryX=0;entryY=0;entryDx=0;entryDy=0;edgeStyle=orthogonalEdgeStyle;curved=1;" parent="1" source="5fb2iIqXQqe1BXmPkbBv-14" target="5fb2iIqXQqe1BXmPkbBv-5" edge="1">
          <mxGeometry width="160" relative="1" as="geometry">
            <mxPoint x="190" y="459.44000000000005" as="sourcePoint" />
            <mxPoint x="310" y="460" as="targetPoint" />
            <Array as="points">
              <mxPoint x="420" y="288" />
              <mxPoint x="420" y="392" />
            </Array>
          </mxGeometry>
        </mxCell>
        <mxCell id="5fb2iIqXQqe1BXmPkbBv-21" value="" style="edgeStyle=orthogonalEdgeStyle;curved=1;rounded=0;orthogonalLoop=1;jettySize=auto;html=1;endArrow=classic;endFill=1;exitX=0;exitY=0.5;exitDx=0;exitDy=0;entryX=1;entryY=0;entryDx=0;entryDy=0;" parent="1" source="5fb2iIqXQqe1BXmPkbBv-16" target="5fb2iIqXQqe1BXmPkbBv-5" edge="1">
          <mxGeometry relative="1" as="geometry">
            <mxPoint x="529.9999716553186" y="260.04761904761904" as="sourcePoint" />
            <mxPoint x="850" y="210" as="targetPoint" />
            <Array as="points">
              <mxPoint x="509" y="270" />
            </Array>
          </mxGeometry>
        </mxCell>
        <mxCell id="5fb2iIqXQqe1BXmPkbBv-22" value="Inactivo" style="ellipse;fillColor=#ffffff;strokeColor=#000000;" parent="1" vertex="1">
          <mxGeometry x="770" y="380" width="80" height="80" as="geometry" />
        </mxCell>
        <mxCell id="5fb2iIqXQqe1BXmPkbBv-24" value="" style="endArrow=classic;startArrow=none;endFill=1;startFill=0;endSize=8;html=1;verticalAlign=bottom;labelBackgroundColor=none;strokeWidth=1;rounded=0;exitX=1;exitY=0;exitDx=0;exitDy=0;entryX=0.5;entryY=0;entryDx=0;entryDy=0;edgeStyle=orthogonalEdgeStyle;curved=1;" parent="1" source="5fb2iIqXQqe1BXmPkbBv-14" target="5fb2iIqXQqe1BXmPkbBv-22" edge="1">
          <mxGeometry width="160" relative="1" as="geometry">
            <mxPoint x="461.7157287525381" y="298.2842712474618" as="sourcePoint" />
            <mxPoint x="461.7157287525381" y="401.7157287525381" as="targetPoint" />
            <Array as="points">
              <mxPoint x="508" y="180" />
              <mxPoint x="810" y="180" />
            </Array>
          </mxGeometry>
        </mxCell>
        <mxCell id="5fb2iIqXQqe1BXmPkbBv-25" value="" style="edgeStyle=orthogonalEdgeStyle;rounded=0;orthogonalLoop=1;jettySize=auto;html=1;endArrow=classic;endFill=1;curved=1;exitX=1;exitY=0.5;exitDx=0;exitDy=0;entryX=0.009;entryY=0.316;entryDx=0;entryDy=0;entryPerimeter=0;" parent="1" source="5fb2iIqXQqe1BXmPkbBv-5" target="5fb2iIqXQqe1BXmPkbBv-22" edge="1">
          <mxGeometry relative="1" as="geometry">
            <mxPoint x="360" y="430" as="sourcePoint" />
            <mxPoint x="450" y="430" as="targetPoint" />
            <Array as="points">
              <mxPoint x="520" y="405" />
              <mxPoint x="650" y="405" />
            </Array>
          </mxGeometry>
        </mxCell>
        <mxCell id="5fb2iIqXQqe1BXmPkbBv-26" value="" style="edgeStyle=orthogonalEdgeStyle;curved=1;rounded=0;orthogonalLoop=1;jettySize=auto;html=1;endArrow=classic;endFill=1;exitX=0.962;exitY=0.239;exitDx=0;exitDy=0;entryX=0.097;entryY=0.778;entryDx=0;entryDy=0;entryPerimeter=0;exitPerimeter=0;" parent="1" source="5fb2iIqXQqe1BXmPkbBv-5" target="5fb2iIqXQqe1BXmPkbBv-16" edge="1">
          <mxGeometry relative="1" as="geometry">
            <mxPoint x="490" y="389.9999999999999" as="sourcePoint" />
            <mxPoint x="490" y="310" as="targetPoint" />
            <Array as="points">
              <mxPoint x="590" y="399" />
              <mxPoint x="590" y="292" />
            </Array>
          </mxGeometry>
        </mxCell>
        <mxCell id="5fb2iIqXQqe1BXmPkbBv-27" value="" style="edgeStyle=orthogonalEdgeStyle;rounded=0;orthogonalLoop=1;jettySize=auto;html=1;endArrow=classic;endFill=1;curved=1;entryX=1;entryY=0.5;entryDx=0;entryDy=0;exitX=0.011;exitY=0.566;exitDx=0;exitDy=0;exitPerimeter=0;" parent="1" source="5fb2iIqXQqe1BXmPkbBv-22" target="5fb2iIqXQqe1BXmPkbBv-5" edge="1">
          <mxGeometry relative="1" as="geometry">
            <mxPoint x="760" y="480" as="sourcePoint" />
            <mxPoint x="780.72" y="415.28" as="targetPoint" />
            <Array as="points">
              <mxPoint x="771" y="440" />
              <mxPoint x="520" y="440" />
            </Array>
          </mxGeometry>
        </mxCell>
        <mxCell id="5fb2iIqXQqe1BXmPkbBv-28" value="&lt;font style=&quot;font-size: 22px&quot;&gt;&lt;b&gt;Ciclo de Vida de un Activo - Opción 1&lt;/b&gt;&lt;/font&gt;" style="shape=umlFrame;whiteSpace=wrap;html=1;width=600;height=60;boundedLbl=1;verticalAlign=middle;align=left;spacingLeft=5;" parent="1" vertex="1">
          <mxGeometry width="1160" height="820" as="geometry" />
        </mxCell>
        <mxCell id="56lBwPPq4AMo4LWb5H_u-10" style="edgeStyle=orthogonalEdgeStyle;rounded=0;orthogonalLoop=1;jettySize=auto;html=1;exitX=1;exitY=0;exitDx=0;exitDy=0;entryX=0;entryY=0.5;entryDx=0;entryDy=0;" edge="1" parent="1" source="56lBwPPq4AMo4LWb5H_u-2" target="56lBwPPq4AMo4LWb5H_u-8">
          <mxGeometry relative="1" as="geometry" />
        </mxCell>
        <mxCell id="56lBwPPq4AMo4LWb5H_u-11" style="edgeStyle=orthogonalEdgeStyle;rounded=0;orthogonalLoop=1;jettySize=auto;html=1;exitX=1;exitY=1;exitDx=0;exitDy=0;entryX=0;entryY=0.5;entryDx=0;entryDy=0;" edge="1" parent="1" source="56lBwPPq4AMo4LWb5H_u-2" target="56lBwPPq4AMo4LWb5H_u-9">
          <mxGeometry relative="1" as="geometry" />
        </mxCell>
        <mxCell id="56lBwPPq4AMo4LWb5H_u-2" value="Crear Vehiculo" style="ellipse;whiteSpace=wrap;html=1;aspect=fixed;" vertex="1" parent="1">
          <mxGeometry x="100" y="1265" width="80" height="80" as="geometry" />
        </mxCell>
        <mxCell id="56lBwPPq4AMo4LWb5H_u-6" value="" style="rounded=0;whiteSpace=wrap;html=1;fillColor=#d5e8d4;strokeColor=none;" vertex="1" parent="1">
          <mxGeometry x="440" y="960" width="200" height="690" as="geometry" />
        </mxCell>
        <mxCell id="56lBwPPq4AMo4LWb5H_u-7" value="" style="rounded=0;whiteSpace=wrap;html=1;fillColor=#e1d5e7;strokeColor=none;" vertex="1" parent="1">
          <mxGeometry x="640" y="960" width="200" height="690" as="geometry" />
        </mxCell>
        <mxCell id="56lBwPPq4AMo4LWb5H_u-8" value="Inhabilitado" style="ellipse;whiteSpace=wrap;html=1;aspect=fixed;" vertex="1" parent="1">
          <mxGeometry x="300" y="1100" width="80" height="80" as="geometry" />
        </mxCell>
        <mxCell id="56lBwPPq4AMo4LWb5H_u-9" value="Habilitado" style="ellipse;whiteSpace=wrap;html=1;aspect=fixed;" vertex="1" parent="1">
          <mxGeometry x="300" y="1420" width="80" height="80" as="geometry" />
        </mxCell>
        <mxCell id="56lBwPPq4AMo4LWb5H_u-13" value="Estados" style="swimlane;fontStyle=0;childLayout=stackLayout;horizontal=1;startSize=30;horizontalStack=0;resizeParent=1;resizeParentMax=0;resizeLast=0;collapsible=1;marginBottom=0;" vertex="1" parent="1">
          <mxGeometry x="480" y="1400" width="140" height="120" as="geometry">
            <mxRectangle x="480" y="1400" width="80" height="30" as="alternateBounds" />
          </mxGeometry>
        </mxCell>
        <mxCell id="56lBwPPq4AMo4LWb5H_u-14" value="En uso" style="text;strokeColor=none;fillColor=none;align=left;verticalAlign=middle;spacingLeft=4;spacingRight=4;overflow=hidden;points=[[0,0.5],[1,0.5]];portConstraint=eastwest;rotatable=0;" vertex="1" parent="56lBwPPq4AMo4LWb5H_u-13">
          <mxGeometry y="30" width="140" height="30" as="geometry" />
        </mxCell>
        <mxCell id="56lBwPPq4AMo4LWb5H_u-15" value="Reparación" style="text;strokeColor=none;fillColor=none;align=left;verticalAlign=middle;spacingLeft=4;spacingRight=4;overflow=hidden;points=[[0,0.5],[1,0.5]];portConstraint=eastwest;rotatable=0;" vertex="1" parent="56lBwPPq4AMo4LWb5H_u-13">
          <mxGeometry y="60" width="140" height="30" as="geometry" />
        </mxCell>
        <mxCell id="56lBwPPq4AMo4LWb5H_u-16" value="Reservado" style="text;strokeColor=none;fillColor=none;align=left;verticalAlign=middle;spacingLeft=4;spacingRight=4;overflow=hidden;points=[[0,0.5],[1,0.5]];portConstraint=eastwest;rotatable=0;" vertex="1" parent="56lBwPPq4AMo4LWb5H_u-13">
          <mxGeometry y="90" width="140" height="30" as="geometry" />
        </mxCell>
      </root>
    </mxGraphModel>
  </diagram>
</mxfile>
